<svg xmlns="http://www.w3.org/2000/svg" viewBox="0 0 128 128">
  <path fill="#F7A80D" d="M38.089 77.466l-11.4 4.896 10.559 4.514 12.241-4.514-11.4-4.896zm-17.138 6.12l-.382 22.034 16.679 7.345V90.089l-16.297-6.503zm34.276 0l-15.073 5.739V110.9l15.073-6.121V83.586zm17.979-68.551L61.6 19.12l11.4 4.896 12.241-4.514-11.4-4.896zm-15.914 6.503v22.034l14.629 4.132.764-21.652-15.393-4.514zm33.511 0l-15.073 4.896.382 21.27 14.691-4.132V21.538zM50.313 49.6l-12.241 4.514 11.4 4.896 12.241-4.896L50.313 49.6zm-17.138 6.121L17.16 60.235v21.652l16.015-6.121V55.721zm34.276 0l-15.073 5.739v21.27l15.073-5.739v-21.27z"/>
</svg> 