<svg xmlns="http://www.w3.org/2000/svg" viewBox="0 0 128 128">
  <path fill="#764ABC" d="M88.69 88.11c-9 18.4-24.76 30.78-45.91 34.85-14.43 2.76-29.45-.6-39.37-10.76-9.21-9.46-11.96-20.9-9.16-32.07 1.79-7.15 5.22-13.52 9.84-19.35 6.95-8.74 14.68-17.05 23.13-24.73 1.48-1.36 1.87-3.23 1.24-5.08-4.17-12.27 2.22-24.14 14.78-25.54 8.5-.95 15.11 3.1 18.87 11.04 3.64 7.64 2.52 15.52-2.97 21.72-3.03 3.43-6.65 5.3-10.81 6.07-1.64.29-2.52 1.13-2.66 2.82-.4 4.78-1.14 9.52-2.28 14.16-.87 3.52-2.88 4.8-6.15 3.64-1.2-.43-2.35-1.01-3.5-1.59-4.01-2.04-7.6-1.32-10.48 1.93-2.99 3.38-2.23 8.49 1.66 10.91 3.93 2.44 9.9 1.83 13.36-1.41 2.2-2.07 2.62-4.69 1.33-7.43-1.05-2.24-.52-3.99 1.96-5.04.77-.32 1.55-.62 2.33-.9 5.22-1.97 11-2.58 14.31-7.55 2.58-3.83 2.36-8.22 1.36-12.59-.8-3.46-2.38-6.51-5.73-8.15-.13-.06-.28-.04-.54-.08l.49-.97c3.63-1.72 5.31-4.92 5.58-8.75.3-4.17-1.27-7.62-4.7-10.14-8.25-6.07-22.37-1.42-23.72 9.7-.21 1.73.19 3.39 1.25 4.82.78 1.04 1.66 1.98 2.45 3 .91 1.17 1.58 2.47 1.54 4-.02 1-.41 1.84-1.18 2.47-1.72 1.4-3.47 2.78-5.09 4.3-1.36 1.28-2.83 2.43-4.34 3.53-4.34 3.16-7.77 7.04-10 11.77-3.38 7.23-1.86 16.43 3.97 22.16 6.29 6.2 14.37 6.7 22.5 3.37 10.3-4.22 16.19-12.69 21.08-21.95.04-.05.08-.18.09-.19-1.92 1.32-3.85 2.59-5.74 3.94-1.75 1.24-3.84 1.61-5.73.52-1.65-.96-2.2-2.51-1.85-4.35.39-2.05 1.93-3.31 4.08-3.42 1.5-.08 3 .16 4.5.29.11.01.21.04.62.12z"/>
  <path fill="#764ABC" d="M105.56 71.15c-2.17-.91-4.26-1.79-6.39-2.52-1.88-.64-3.87-.95-5.86-.29-3.27 1.08-5.46 4.27-5.29 7.68.16 3.17 2.33 6.10 5.36 6.79 2.8.62 5.2-.21 7.3-1.96 2.3-1.92 3.58-4.51 4.66-7.3.34-.87.18-1.82-.36-2.1-1.26-.29-.79-1.17-1.12-1.94.49.89 1.37 1.83 1.7 2.64zm-14.01-12.44c1.78.95 3.69.7 5.38-.71 1.05-.88 1.84-2.03 2.38-3.34.5-1.23.65-2.5.4-3.81-.48-2.59-1.98-4.3-4.59-4.91-2.83-.66-5.17.52-6.93 2.81-1.64 2.12-2.19 4.56-1.48 7.08.36 1.28 1.08 2.44 2.5 3.06 1.25.54 1.67.06 2.34-.18z"/>
</svg> 